<?xml version="1.0" standalone="no"?>
<!DOCTYPE svg PUBLIC "-//W3C//DTD SVG 20010904//EN"
 "http://www.w3.org/TR/2001/REC-SVG-20010904/DTD/svg10.dtd">
<svg version="1.0" xmlns="http://www.w3.org/2000/svg"
 width="660.000000pt" height="660.000000pt" viewBox="0 0 660.000000 660.000000"
 preserveAspectRatio="xMidYMid meet">
<metadata>
Created by potrace 1.14, written by Peter Selinger 2001-2017
</metadata>
<g transform="translate(0.000000,660.000000) scale(0.100000,-0.100000)"
fill="#000000" stroke="none">
<path d="M2860 6334 c-19 -2 -84 -9 -145 -14 -730 -71 -1472 -457 -1958 -1019
-443 -513 -692 -1104 -746 -1774 -60 -726 158 -1470 603 -2061 386 -512 935
-897 1538 -1080 769 -232 1563 -163 2278 199 762 386 1326 1080 1556 1914 36
132 35 141 -13 141 -45 0 -182 51 -244 91 -202 129 -312 328 -312 564 0 236
110 435 312 564 62 40 199 91 244 91 48 0 49 9 13 141 -148 538 -423 1003
-822 1389 -474 459 -1065 744 -1734 835 -109 15 -496 28 -570 19z m37 -1718
c4 -8 7 -595 5 -1305 l-2 -1291 -420 0 -420 0 0 943 c0 615 -4 955 -10 979
-14 49 -52 78 -102 78 -48 0 -83 -22 -97 -62 -8 -21 -11 -330 -11 -984 l0
-954 -428 0 -429 0 -6 457 c-11 734 -9 2111 3 2134 10 19 32 19 960 19 812 0
950 -2 957 -14z m1083 -969 l5 -979 30 -24 c33 -26 79 -31 120 -12 57 26 55
-15 55 1021 0 728 3 956 12 965 19 19 811 17 827 -2 8 -10 10 -358 9 -1302
l-3 -1289 -957 -3 -958 -2 0 1298 c0 714 3 1302 7 1305 3 4 196 6 427 5 l421
-3 5 -978z"/>
<path d="M5941 3794 c-177 -47 -332 -212 -370 -392 -35 -168 13 -333 135 -462
102 -108 224 -160 374 -160 144 0 260 48 361 149 145 146 193 349 125 536 -60
167 -189 286 -357 330 -68 19 -198 18 -268 -1z m299 -448 c0 -107 3 -202 6
-211 4 -9 17 -21 30 -26 34 -12 34 -59 0 -59 -45 0 -77 19 -91 55 -11 26 -15
81 -15 228 0 107 3 197 7 200 3 4 19 7 35 7 l28 0 0 -194z m-166 28 c31 -31
36 -61 36 -206 l0 -119 -32 3 -33 3 -5 133 c-4 117 -7 135 -24 148 -28 20 -59
17 -90 -7 -26 -20 -26 -22 -26 -150 l0 -130 -32 3 -33 3 -3 173 -2 172 26 0
c18 0 28 -6 31 -20 5 -20 7 -20 24 -4 41 37 124 36 163 -2z"/>
</g>
</svg>
